<mxfile host="app.diagrams.net" modified="2023-12-01T10:33:35.726Z" agent="Mozilla/5.0 (X11; Linux x86_64; rv:109.0) Gecko/20100101 Firefox/114.0" etag="Rs-oq661EQNAimoQvZq-" version="22.1.5" type="github">
  <diagram name="第 1 页" id="-Ap52MZwl_gN1Nkvw6ww">
    <mxGraphModel dx="2074" dy="1078" grid="1" gridSize="10" guides="1" tooltips="1" connect="1" arrows="1" fold="1" page="1" pageScale="1" pageWidth="827" pageHeight="1169" math="0" shadow="0">
      <root>
        <mxCell id="0" />
        <mxCell id="1" parent="0" />
        <mxCell id="wdBuc7eoAil308pSurVw-1" value="" style="whiteSpace=wrap;html=1;rounded=0;" vertex="1" parent="1">
          <mxGeometry x="921.5" y="743" width="335" height="180" as="geometry" />
        </mxCell>
        <mxCell id="wdBuc7eoAil308pSurVw-2" value="" style="whiteSpace=wrap;html=1;rounded=0;" vertex="1" parent="1">
          <mxGeometry x="870" y="150" width="490" height="210" as="geometry" />
        </mxCell>
        <mxCell id="wdBuc7eoAil308pSurVw-3" value="" style="edgeStyle=orthogonalEdgeStyle;rounded=0;orthogonalLoop=1;jettySize=auto;html=1;" edge="1" parent="1" source="wdBuc7eoAil308pSurVw-4" target="wdBuc7eoAil308pSurVw-60">
          <mxGeometry relative="1" as="geometry" />
        </mxCell>
        <mxCell id="wdBuc7eoAil308pSurVw-4" value="" style="whiteSpace=wrap;html=1;rounded=0;" vertex="1" parent="1">
          <mxGeometry x="200" y="450" width="470" height="210" as="geometry" />
        </mxCell>
        <mxCell id="wdBuc7eoAil308pSurVw-5" value="" style="edgeStyle=orthogonalEdgeStyle;rounded=0;orthogonalLoop=1;jettySize=auto;html=1;" edge="1" parent="1" source="wdBuc7eoAil308pSurVw-6" target="wdBuc7eoAil308pSurVw-58">
          <mxGeometry relative="1" as="geometry" />
        </mxCell>
        <mxCell id="wdBuc7eoAil308pSurVw-6" value="" style="rounded=0;whiteSpace=wrap;html=1;" vertex="1" parent="1">
          <mxGeometry x="200" y="178" width="470" height="220" as="geometry" />
        </mxCell>
        <mxCell id="wdBuc7eoAil308pSurVw-7" value="" style="edgeStyle=orthogonalEdgeStyle;rounded=0;orthogonalLoop=1;jettySize=auto;html=1;entryX=0.473;entryY=-0.004;entryDx=0;entryDy=0;entryPerimeter=0;" edge="1" parent="1" source="wdBuc7eoAil308pSurVw-10" target="wdBuc7eoAil308pSurVw-6">
          <mxGeometry relative="1" as="geometry" />
        </mxCell>
        <mxCell id="wdBuc7eoAil308pSurVw-8" value="" style="edgeStyle=orthogonalEdgeStyle;rounded=0;orthogonalLoop=1;jettySize=auto;html=1;" edge="1" parent="1" source="wdBuc7eoAil308pSurVw-10" target="wdBuc7eoAil308pSurVw-29">
          <mxGeometry relative="1" as="geometry" />
        </mxCell>
        <mxCell id="wdBuc7eoAil308pSurVw-9" value="" style="edgeStyle=orthogonalEdgeStyle;rounded=0;orthogonalLoop=1;jettySize=auto;html=1;" edge="1" parent="1" source="wdBuc7eoAil308pSurVw-10" target="wdBuc7eoAil308pSurVw-63">
          <mxGeometry relative="1" as="geometry" />
        </mxCell>
        <mxCell id="wdBuc7eoAil308pSurVw-10" value="主界面" style="rounded=0;html=1;whiteSpace=wrap;" vertex="1" parent="1">
          <mxGeometry x="710" y="60" width="120" height="60" as="geometry" />
        </mxCell>
        <mxCell id="wdBuc7eoAil308pSurVw-11" value="" style="edgeStyle=orthogonalEdgeStyle;rounded=0;orthogonalLoop=1;jettySize=auto;html=1;dashed=1;" edge="1" parent="1" source="wdBuc7eoAil308pSurVw-14" target="wdBuc7eoAil308pSurVw-15">
          <mxGeometry relative="1" as="geometry" />
        </mxCell>
        <mxCell id="wdBuc7eoAil308pSurVw-12" value="" style="edgeStyle=orthogonalEdgeStyle;rounded=0;orthogonalLoop=1;jettySize=auto;html=1;dashed=1;" edge="1" parent="1" source="wdBuc7eoAil308pSurVw-14" target="wdBuc7eoAil308pSurVw-16">
          <mxGeometry relative="1" as="geometry" />
        </mxCell>
        <mxCell id="wdBuc7eoAil308pSurVw-13" value="" style="edgeStyle=orthogonalEdgeStyle;rounded=0;orthogonalLoop=1;jettySize=auto;html=1;dashed=1;exitX=1;exitY=0.5;exitDx=0;exitDy=0;" edge="1" parent="1" source="wdBuc7eoAil308pSurVw-16" target="wdBuc7eoAil308pSurVw-17">
          <mxGeometry relative="1" as="geometry" />
        </mxCell>
        <mxCell id="wdBuc7eoAil308pSurVw-14" value="用户管理" style="whiteSpace=wrap;html=1;rounded=0;" vertex="1" parent="1">
          <mxGeometry x="370" y="188" width="120" height="60" as="geometry" />
        </mxCell>
        <mxCell id="wdBuc7eoAil308pSurVw-15" value="登出" style="whiteSpace=wrap;html=1;rounded=0;dashed=1;" vertex="1" parent="1">
          <mxGeometry x="220" y="318" width="120" height="60" as="geometry" />
        </mxCell>
        <mxCell id="wdBuc7eoAil308pSurVw-16" value="登录" style="whiteSpace=wrap;html=1;rounded=0;dashed=1;" vertex="1" parent="1">
          <mxGeometry x="370" y="318" width="120" height="60" as="geometry" />
        </mxCell>
        <mxCell id="wdBuc7eoAil308pSurVw-17" value="修改用户名和密码" style="whiteSpace=wrap;html=1;rounded=0;dashed=1;" vertex="1" parent="1">
          <mxGeometry x="530" y="318" width="120" height="60" as="geometry" />
        </mxCell>
        <mxCell id="wdBuc7eoAil308pSurVw-18" value="" style="edgeStyle=orthogonalEdgeStyle;rounded=0;orthogonalLoop=1;jettySize=auto;html=1;dashed=1;" edge="1" parent="1" source="wdBuc7eoAil308pSurVw-23" target="wdBuc7eoAil308pSurVw-24">
          <mxGeometry relative="1" as="geometry" />
        </mxCell>
        <mxCell id="wdBuc7eoAil308pSurVw-19" value="" style="edgeStyle=orthogonalEdgeStyle;rounded=0;orthogonalLoop=1;jettySize=auto;html=1;dashed=1;" edge="1" parent="1" source="wdBuc7eoAil308pSurVw-23" target="wdBuc7eoAil308pSurVw-25">
          <mxGeometry relative="1" as="geometry" />
        </mxCell>
        <mxCell id="wdBuc7eoAil308pSurVw-20" value="" style="edgeStyle=orthogonalEdgeStyle;rounded=0;orthogonalLoop=1;jettySize=auto;html=1;dashed=1;" edge="1" parent="1" source="wdBuc7eoAil308pSurVw-23" target="wdBuc7eoAil308pSurVw-26">
          <mxGeometry relative="1" as="geometry" />
        </mxCell>
        <mxCell id="wdBuc7eoAil308pSurVw-21" value="" style="edgeStyle=orthogonalEdgeStyle;rounded=0;orthogonalLoop=1;jettySize=auto;html=1;dashed=1;" edge="1" parent="1" source="wdBuc7eoAil308pSurVw-23" target="wdBuc7eoAil308pSurVw-28">
          <mxGeometry relative="1" as="geometry" />
        </mxCell>
        <mxCell id="wdBuc7eoAil308pSurVw-22" style="edgeStyle=orthogonalEdgeStyle;rounded=0;orthogonalLoop=1;jettySize=auto;html=1;entryX=0.5;entryY=0;entryDx=0;entryDy=0;dashed=1;" edge="1" parent="1" source="wdBuc7eoAil308pSurVw-23" target="wdBuc7eoAil308pSurVw-27">
          <mxGeometry relative="1" as="geometry" />
        </mxCell>
        <mxCell id="wdBuc7eoAil308pSurVw-23" value="患者管理" style="rounded=0;whiteSpace=wrap;html=1;" vertex="1" parent="1">
          <mxGeometry x="370" y="470" width="120" height="60" as="geometry" />
        </mxCell>
        <mxCell id="wdBuc7eoAil308pSurVw-24" value="指定" style="whiteSpace=wrap;html=1;rounded=0;dashed=1;" vertex="1" parent="1">
          <mxGeometry x="540" y="470" width="120" height="60" as="geometry" />
        </mxCell>
        <mxCell id="wdBuc7eoAil308pSurVw-25" value="列表查询" style="whiteSpace=wrap;html=1;rounded=0;dashed=1;" vertex="1" parent="1">
          <mxGeometry x="210" y="475" width="90" height="50" as="geometry" />
        </mxCell>
        <mxCell id="wdBuc7eoAil308pSurVw-26" value="新建" style="whiteSpace=wrap;html=1;rounded=0;dashed=1;" vertex="1" parent="1">
          <mxGeometry x="290" y="590" width="80" height="50" as="geometry" />
        </mxCell>
        <mxCell id="wdBuc7eoAil308pSurVw-27" value="删除" style="whiteSpace=wrap;html=1;rounded=0;dashed=1;" vertex="1" parent="1">
          <mxGeometry x="490" y="590" width="80" height="50" as="geometry" />
        </mxCell>
        <mxCell id="wdBuc7eoAil308pSurVw-28" value="&lt;div&gt;修改&lt;/div&gt;" style="whiteSpace=wrap;html=1;rounded=0;dashed=1;" vertex="1" parent="1">
          <mxGeometry x="387.5" y="590" width="85" height="50" as="geometry" />
        </mxCell>
        <mxCell id="wdBuc7eoAil308pSurVw-29" value="关于我们" style="whiteSpace=wrap;html=1;rounded=0;" vertex="1" parent="1">
          <mxGeometry x="710" y="150" width="120" height="60" as="geometry" />
        </mxCell>
        <mxCell id="wdBuc7eoAil308pSurVw-30" value="" style="edgeStyle=orthogonalEdgeStyle;rounded=0;orthogonalLoop=1;jettySize=auto;html=1;dashed=1;" edge="1" parent="1" source="wdBuc7eoAil308pSurVw-34" target="wdBuc7eoAil308pSurVw-35">
          <mxGeometry relative="1" as="geometry" />
        </mxCell>
        <mxCell id="wdBuc7eoAil308pSurVw-31" value="" style="edgeStyle=orthogonalEdgeStyle;rounded=0;orthogonalLoop=1;jettySize=auto;html=1;dashed=1;" edge="1" parent="1" source="wdBuc7eoAil308pSurVw-34" target="wdBuc7eoAil308pSurVw-36">
          <mxGeometry relative="1" as="geometry" />
        </mxCell>
        <mxCell id="wdBuc7eoAil308pSurVw-32" value="" style="edgeStyle=orthogonalEdgeStyle;rounded=0;orthogonalLoop=1;jettySize=auto;html=1;dashed=1;" edge="1" parent="1" source="wdBuc7eoAil308pSurVw-34" target="wdBuc7eoAil308pSurVw-37">
          <mxGeometry relative="1" as="geometry" />
        </mxCell>
        <mxCell id="wdBuc7eoAil308pSurVw-33" value="" style="edgeStyle=orthogonalEdgeStyle;rounded=0;orthogonalLoop=1;jettySize=auto;html=1;dashed=1;" edge="1" parent="1" source="wdBuc7eoAil308pSurVw-34" target="wdBuc7eoAil308pSurVw-38">
          <mxGeometry relative="1" as="geometry" />
        </mxCell>
        <mxCell id="wdBuc7eoAil308pSurVw-34" value="数据管理" style="rounded=0;whiteSpace=wrap;html=1;" vertex="1" parent="1">
          <mxGeometry x="1081" y="165" width="120" height="60" as="geometry" />
        </mxCell>
        <mxCell id="wdBuc7eoAil308pSurVw-35" value="删除" style="whiteSpace=wrap;html=1;rounded=0;dashed=1;" vertex="1" parent="1">
          <mxGeometry x="928" y="165" width="120" height="60" as="geometry" />
        </mxCell>
        <mxCell id="wdBuc7eoAil308pSurVw-36" value="查询" style="whiteSpace=wrap;html=1;rounded=0;dashed=1;" vertex="1" parent="1">
          <mxGeometry x="961" y="278" width="120" height="60" as="geometry" />
        </mxCell>
        <mxCell id="wdBuc7eoAil308pSurVw-37" value="重命名" style="whiteSpace=wrap;html=1;rounded=0;dashed=1;" vertex="1" parent="1">
          <mxGeometry x="1081" y="278" width="120" height="60" as="geometry" />
        </mxCell>
        <mxCell id="wdBuc7eoAil308pSurVw-38" value="导出" style="whiteSpace=wrap;html=1;rounded=0;dashed=1;" vertex="1" parent="1">
          <mxGeometry x="1201" y="278" width="120" height="60" as="geometry" />
        </mxCell>
        <mxCell id="wdBuc7eoAil308pSurVw-39" value="" style="edgeStyle=orthogonalEdgeStyle;rounded=0;orthogonalLoop=1;jettySize=auto;html=1;" edge="1" parent="1" source="wdBuc7eoAil308pSurVw-42" target="wdBuc7eoAil308pSurVw-45">
          <mxGeometry relative="1" as="geometry" />
        </mxCell>
        <mxCell id="wdBuc7eoAil308pSurVw-40" value="" style="edgeStyle=orthogonalEdgeStyle;rounded=0;orthogonalLoop=1;jettySize=auto;html=1;exitX=0.5;exitY=1;exitDx=0;exitDy=0;" edge="1" parent="1" source="wdBuc7eoAil308pSurVw-42" target="wdBuc7eoAil308pSurVw-53">
          <mxGeometry relative="1" as="geometry" />
        </mxCell>
        <mxCell id="wdBuc7eoAil308pSurVw-41" style="edgeStyle=orthogonalEdgeStyle;rounded=0;orthogonalLoop=1;jettySize=auto;html=1;exitX=0.5;exitY=1;exitDx=0;exitDy=0;" edge="1" parent="1" source="wdBuc7eoAil308pSurVw-42" target="wdBuc7eoAil308pSurVw-52">
          <mxGeometry relative="1" as="geometry" />
        </mxCell>
        <mxCell id="wdBuc7eoAil308pSurVw-42" value="系统配置" style="rounded=0;whiteSpace=wrap;html=1;" vertex="1" parent="1">
          <mxGeometry x="1029" y="525" width="120" height="60" as="geometry" />
        </mxCell>
        <mxCell id="wdBuc7eoAil308pSurVw-43" value="" style="edgeStyle=orthogonalEdgeStyle;rounded=0;orthogonalLoop=1;jettySize=auto;html=1;" edge="1" parent="1" source="wdBuc7eoAil308pSurVw-45" target="wdBuc7eoAil308pSurVw-1">
          <mxGeometry relative="1" as="geometry" />
        </mxCell>
        <mxCell id="wdBuc7eoAil308pSurVw-44" value="" style="edgeStyle=orthogonalEdgeStyle;rounded=0;orthogonalLoop=1;jettySize=auto;html=1;exitX=0.5;exitY=1;exitDx=0;exitDy=0;" edge="1" parent="1" source="wdBuc7eoAil308pSurVw-45" target="wdBuc7eoAil308pSurVw-51">
          <mxGeometry relative="1" as="geometry" />
        </mxCell>
        <mxCell id="wdBuc7eoAil308pSurVw-45" value="信号采集" style="whiteSpace=wrap;html=1;rounded=0;" vertex="1" parent="1">
          <mxGeometry x="1029" y="625" width="120" height="60" as="geometry" />
        </mxCell>
        <mxCell id="wdBuc7eoAil308pSurVw-46" value="" style="edgeStyle=orthogonalEdgeStyle;rounded=0;orthogonalLoop=1;jettySize=auto;html=1;dashed=1;" edge="1" parent="1" source="wdBuc7eoAil308pSurVw-48" target="wdBuc7eoAil308pSurVw-49">
          <mxGeometry relative="1" as="geometry" />
        </mxCell>
        <mxCell id="wdBuc7eoAil308pSurVw-47" value="" style="edgeStyle=orthogonalEdgeStyle;rounded=0;orthogonalLoop=1;jettySize=auto;html=1;dashed=1;" edge="1" parent="1" source="wdBuc7eoAil308pSurVw-48" target="wdBuc7eoAil308pSurVw-50">
          <mxGeometry relative="1" as="geometry" />
        </mxCell>
        <mxCell id="wdBuc7eoAil308pSurVw-48" value="显示模式" style="rounded=0;whiteSpace=wrap;html=1;" vertex="1" parent="1">
          <mxGeometry x="1029" y="751" width="120" height="60" as="geometry" />
        </mxCell>
        <mxCell id="wdBuc7eoAil308pSurVw-49" value="普通显示" style="whiteSpace=wrap;html=1;rounded=0;dashed=1;" vertex="1" parent="1">
          <mxGeometry x="969" y="851" width="120" height="60" as="geometry" />
        </mxCell>
        <mxCell id="wdBuc7eoAil308pSurVw-50" value="精确显示" style="whiteSpace=wrap;html=1;rounded=0;dashed=1;" vertex="1" parent="1">
          <mxGeometry x="1089" y="851" width="120" height="60" as="geometry" />
        </mxCell>
        <mxCell id="wdBuc7eoAil308pSurVw-51" value="数据记录" style="whiteSpace=wrap;html=1;rounded=0;" vertex="1" parent="1">
          <mxGeometry x="1280" y="770" width="120" height="60" as="geometry" />
        </mxCell>
        <mxCell id="wdBuc7eoAil308pSurVw-52" value="通知提示" style="whiteSpace=wrap;html=1;rounded=0;" vertex="1" parent="1">
          <mxGeometry x="1181" y="625" width="120" height="60" as="geometry" />
        </mxCell>
        <mxCell id="wdBuc7eoAil308pSurVw-53" value="电量显示" style="whiteSpace=wrap;html=1;rounded=0;" vertex="1" parent="1">
          <mxGeometry x="866.5" y="625" width="120" height="60" as="geometry" />
        </mxCell>
        <mxCell id="wdBuc7eoAil308pSurVw-54" style="edgeStyle=orthogonalEdgeStyle;rounded=0;orthogonalLoop=1;jettySize=auto;html=1;entryX=0;entryY=0.5;entryDx=0;entryDy=0;" edge="1" parent="1" source="wdBuc7eoAil308pSurVw-58" target="wdBuc7eoAil308pSurVw-2">
          <mxGeometry relative="1" as="geometry" />
        </mxCell>
        <mxCell id="wdBuc7eoAil308pSurVw-55" style="edgeStyle=orthogonalEdgeStyle;rounded=0;orthogonalLoop=1;jettySize=auto;html=1;entryX=0.5;entryY=0;entryDx=0;entryDy=0;exitX=0.5;exitY=1;exitDx=0;exitDy=0;" edge="1" parent="1" source="wdBuc7eoAil308pSurVw-58" target="wdBuc7eoAil308pSurVw-4">
          <mxGeometry relative="1" as="geometry">
            <Array as="points">
              <mxPoint x="770" y="420" />
              <mxPoint x="435" y="420" />
            </Array>
          </mxGeometry>
        </mxCell>
        <mxCell id="wdBuc7eoAil308pSurVw-56" style="edgeStyle=orthogonalEdgeStyle;rounded=0;orthogonalLoop=1;jettySize=auto;html=1;entryX=0;entryY=0.5;entryDx=0;entryDy=0;" edge="1" parent="1" source="wdBuc7eoAil308pSurVw-58" target="wdBuc7eoAil308pSurVw-64">
          <mxGeometry relative="1" as="geometry" />
        </mxCell>
        <mxCell id="wdBuc7eoAil308pSurVw-57" style="edgeStyle=orthogonalEdgeStyle;rounded=0;orthogonalLoop=1;jettySize=auto;html=1;entryX=0;entryY=0.5;entryDx=0;entryDy=0;" edge="1" parent="1" source="wdBuc7eoAil308pSurVw-58" target="wdBuc7eoAil308pSurVw-65">
          <mxGeometry relative="1" as="geometry" />
        </mxCell>
        <mxCell id="wdBuc7eoAil308pSurVw-58" value="登录" style="rhombus;whiteSpace=wrap;html=1;rounded=0;" vertex="1" parent="1">
          <mxGeometry x="730" y="248" width="80" height="80" as="geometry" />
        </mxCell>
        <mxCell id="wdBuc7eoAil308pSurVw-59" style="edgeStyle=orthogonalEdgeStyle;rounded=0;orthogonalLoop=1;jettySize=auto;html=1;" edge="1" parent="1" source="wdBuc7eoAil308pSurVw-60" target="wdBuc7eoAil308pSurVw-42">
          <mxGeometry relative="1" as="geometry" />
        </mxCell>
        <mxCell id="wdBuc7eoAil308pSurVw-60" value="指定患者" style="rhombus;whiteSpace=wrap;html=1;rounded=0;" vertex="1" parent="1">
          <mxGeometry x="730" y="515" width="80" height="80" as="geometry" />
        </mxCell>
        <mxCell id="wdBuc7eoAil308pSurVw-61" style="edgeStyle=orthogonalEdgeStyle;rounded=0;orthogonalLoop=1;jettySize=auto;html=1;" edge="1" parent="1" source="wdBuc7eoAil308pSurVw-62" target="wdBuc7eoAil308pSurVw-42">
          <mxGeometry relative="1" as="geometry" />
        </mxCell>
        <mxCell id="wdBuc7eoAil308pSurVw-62" value="打开主机" style="shape=manualInput;whiteSpace=wrap;html=1;" vertex="1" parent="1">
          <mxGeometry x="1280" y="515" width="80" height="80" as="geometry" />
        </mxCell>
        <mxCell id="wdBuc7eoAil308pSurVw-63" value="通知历史" style="whiteSpace=wrap;html=1;rounded=0;" vertex="1" parent="1">
          <mxGeometry x="870" y="60" width="120" height="60" as="geometry" />
        </mxCell>
        <mxCell id="wdBuc7eoAil308pSurVw-64" value="自动注销" style="whiteSpace=wrap;html=1;rounded=0;" vertex="1" parent="1">
          <mxGeometry x="870" y="378" width="120" height="60" as="geometry" />
        </mxCell>
        <mxCell id="wdBuc7eoAil308pSurVw-65" value="操作日志" style="whiteSpace=wrap;html=1;rounded=0;" vertex="1" parent="1">
          <mxGeometry x="870" y="465" width="120" height="60" as="geometry" />
        </mxCell>
      </root>
    </mxGraphModel>
  </diagram>
</mxfile>
